HIERARCHY
ROOT Hips
{
	OFFSET 0.000000 0.000000 0.000000
	CHANNELS 6 Xposition Yposition Zposition Zrotation Yrotation Xrotation 
	JOINT LHipJoint
	{
		OFFSET 0.000000 0.000000 0.000000
		CHANNELS 3 Zrotation Yrotation Xrotation
		JOINT LeftUpLeg
		{
			OFFSET 1.363060 -1.794630 0.839290
			CHANNELS 3 Zrotation Yrotation Xrotation
			JOINT LeftLeg
			{
				OFFSET 2.448110 -6.726130 0.000000
				CHANNELS 3 Zrotation Yrotation Xrotation
				JOINT LeftFoot
				{
					OFFSET 2.562200 -7.039590 0.000000
					CHANNELS 3 Zrotation Yrotation Xrotation
					JOINT LeftToeBase
					{
						OFFSET 0.157640 -0.433110 2.322550
						CHANNELS 3 Zrotation Yrotation Xrotation
						End Site
						{
							OFFSET 0.000000 0.000000 0.000000
						}
					}
				}
			}
		}
	}
	JOINT RHipJoint
	{
		OFFSET 0.000000 0.000000 0.000000
		CHANNELS 3 Zrotation Yrotation Xrotation
		JOINT RightUpLeg
		{
			OFFSET -1.305520 -1.794630 0.839290
			CHANNELS 3 Zrotation Yrotation Xrotation
			JOINT RightLeg
			{
				OFFSET -2.542530 -6.985550 0.000000
				CHANNELS 3 Zrotation Yrotation Xrotation
				JOINT RightFoot
				{
					OFFSET -2.568260 -7.056230 0.000000
					CHANNELS 3 Zrotation Yrotation Xrotation
					JOINT RightToeBase
					{
						OFFSET -0.164730 -0.452590 2.363150
						CHANNELS 3 Zrotation Yrotation Xrotation
						End Site
						{
							OFFSET 0.000000 0.000000 0.000000
						}
					}
				}
			}
		}
	}
	JOINT LowerBack
	{
		OFFSET 0.000000 0.000000 0.000000
		CHANNELS 3 Zrotation Yrotation Xrotation
		JOINT Spine
		{
			OFFSET 0.028270 2.035590 -0.193380
			CHANNELS 3 Zrotation Yrotation Xrotation
			JOINT Spine1
			{
				OFFSET 0.056720 2.048850 -0.042750
				CHANNELS 3 Zrotation Yrotation Xrotation
				JOINT Neck
				{
					OFFSET 0.000000 0.000000 0.000000
					CHANNELS 3 Zrotation Yrotation Xrotation
					JOINT Neck1
					{
						OFFSET -0.054170 1.746240 0.172020
						CHANNELS 3 Zrotation Yrotation Xrotation
						JOINT Head
						{
							OFFSET 0.104070 1.761360 -0.123970
							CHANNELS 3 Zrotation Yrotation Xrotation
							End Site
							{
								OFFSET 0.000000 0.000000 0.000000
							}
						}
					}
				}
				JOINT LeftShoulder
				{
					OFFSET 0.000000 0.000000 0.000000
					CHANNELS 3 Zrotation Yrotation Xrotation
					JOINT LeftArm
					{
						OFFSET 3.362410 1.200890 -0.311210
						CHANNELS 3 Zrotation Yrotation Xrotation
						JOINT LeftForeArm
						{
							OFFSET 4.983000 -0.000000 -0.000000
							CHANNELS 3 Zrotation Yrotation Xrotation
							JOINT LeftHand
							{
								OFFSET 3.483560 -0.000000 -0.000000
								CHANNELS 3 Zrotation Yrotation Xrotation
								JOINT LeftFingerBase
								{
									OFFSET 0.000000 0.000000 0.000000
									CHANNELS 3 Zrotation Yrotation Xrotation
									JOINT LeftHandIndex1
									{
										OFFSET 0.715260 -0.000000 -0.000000
										CHANNELS 3 Zrotation Yrotation Xrotation
										End Site
										{
											OFFSET 0.000000 0.000000 0.000000
										}
									}
								}
								JOINT LThumb
								{
									OFFSET 0.000000 0.000000 0.000000
									CHANNELS 3 Zrotation Yrotation Xrotation
									End Site
									{
										OFFSET 0.000000 0.000000 0.000000
									}
								}
							}
						}
					}
				}
				JOINT RightShoulder
				{
					OFFSET 0.000000 0.000000 0.000000
					CHANNELS 3 Zrotation Yrotation Xrotation
					JOINT RightArm
					{
						OFFSET -3.136600 1.374050 -0.404650
						CHANNELS 3 Zrotation Yrotation Xrotation
						JOINT RightForeArm
						{
							OFFSET -5.241900 -0.000000 -0.000000
							CHANNELS 3 Zrotation Yrotation Xrotation
							JOINT RightHand
							{
								OFFSET -3.444170 -0.000000 -0.000000
								CHANNELS 3 Zrotation Yrotation Xrotation
								JOINT RightFingerBase
								{
									OFFSET 0.000000 0.000000 0.000000
									CHANNELS 3 Zrotation Yrotation Xrotation
									JOINT RightHandIndex1
									{
										OFFSET -0.622530 -0.000000 -0.000000
										CHANNELS 3 Zrotation Yrotation Xrotation
										End Site
										{
											OFFSET 0.000000 0.000000 0.000000
										}
									}
								}
								JOINT RThumb
								{
									OFFSET 0.000000 0.000000 0.000000
									CHANNELS 3 Zrotation Yrotation Xrotation
									End Site
									{
										OFFSET 0.000000 0.000000 0.000000
									}
								}
							}
						}
					}
				}
			}
		}
	}
}
MOTION
Frames: 8
Frame Time: 0.008333
32.170164 17.012244 -35.422936 -0.924504 -36.800039 16.843413 1.725973 -1.908961 -2.460485 -7.590828 9.325756 -45.135520 6.450082 16.385840 48.778233 3.319862 -5.584539 -1.024482 5.333700 -13.750100 -42.245300 -2.520781 0.555661 -0.817808 15.002913 -5.719027 -46.105381 -8.055628 -17.824130 54.681205 -4.847150 9.907735 -5.728882 -0.673500 -5.248000 14.617200 2.585945 -0.562166 19.135938 0.764406 -0.683356 -3.659336 -4.583292 0.118707 -11.240076 6.793284 9.350744 3.321587 1.580845 10.574151 -1.301572 -9.700500 2.956900 -6.250300 -4.085883 -6.493518 1.581881 -12.059241 25.851958 -37.287911 136.272322 -58.276973 -107.391375 2.918560 -3.006017 -88.194155 48.299824 27.625299 32.224600 -7.125000 0.000000 0.000000 33.622100 70.522700 21.256000 10.460911 4.657349 2.876659 17.389640 -15.274043 -44.121515 -136.326981 53.670665 -108.263572 -3.401658 5.195980 -38.951078 -19.509577 0.513086 2.222300 7.125000 0.000000 0.000000 5.390700 -36.345800 1.151200 
32.160247 17.016083 -35.408327 -0.859582 -36.795503 16.750030 1.694635 -1.908062 -2.450679 -7.590141 9.299906 -44.991270 6.448478 16.377765 48.747834 3.538178 -6.206173 -0.983724 4.974200 -13.354600 -40.711000 -2.506396 0.555322 -0.828496 14.946404 -5.790790 -45.946257 -8.034999 -17.801454 54.610951 -4.850953 9.915647 -5.657003 -0.666100 -5.219600 14.536100 2.468368 -0.513999 19.117484 0.760606 -0.641482 -3.632159 -4.519436 0.146767 -11.119455 6.713308 9.200566 3.614291 1.909791 10.308368 -0.761348 -9.505500 2.993400 -6.027900 -4.060736 -6.333122 1.561132 -12.157689 26.215919 -37.547601 136.274646 -58.358747 -107.363304 2.929179 -2.987329 -88.840361 48.137417 27.373054 31.871600 -7.125000 0.000000 0.000000 33.057900 70.164600 20.619900 10.414637 4.547964 2.856825 17.518827 -15.610416 -44.454856 -136.556159 53.622633 -108.326767 -3.407956 5.189196 -38.216938 -19.348174 0.620450 2.154400 7.125000 0.000000 0.000000 5.588700 -36.220800 1.211000 
32.150329 17.012884 -35.398196 -0.991361 -36.726391 16.735206 1.693198 -1.898136 -2.456313 -7.406094 9.269250 -44.834314 6.472799 16.379731 48.768819 3.781452 -7.004556 -0.598647 4.563100 -12.874300 -38.899600 -2.490533 0.550372 -0.830608 15.082037 -5.871248 -45.784572 -8.029273 -17.793075 54.609853 -4.803747 9.704633 -5.801237 -0.576000 -4.860200 13.510400 2.551905 -0.547175 19.134884 0.769429 -0.668504 -3.600081 -4.512468 0.131170 -11.045364 6.786603 9.111811 4.020136 2.128349 10.168571 -0.298161 -9.446500 3.050600 -5.877100 -4.003042 -6.229128 1.525927 -12.015994 26.460433 -37.722844 135.856288 -58.770654 -107.156809 2.991559 -2.983534 -89.481471 47.911674 27.616450 31.880200 -7.125000 0.000000 0.000000 32.812400 70.382500 20.609500 10.375130 4.482426 2.860691 17.558034 -15.759409 -44.781905 -136.610862 53.686789 -108.349589 -3.408056 5.206996 -37.917882 -19.023578 0.719417 2.080700 7.125000 0.000000 0.000000 5.869100 -36.103300 1.289100 
32.140732 17.006272 -35.391158 -1.006498 -36.615838 16.653446 1.673361 -1.894812 -2.461218 -7.291247 9.144617 -44.669228 6.473361 16.390310 48.777374 3.702219 -6.741192 -0.696286 4.730000 -13.073100 -39.642600 -2.477229 0.546278 -0.835638 15.087465 -5.938865 -45.632655 -8.038045 -17.788469 54.622661 -4.816952 9.712853 -5.874580 -0.583200 -4.890000 13.595200 2.575753 -0.638524 19.156042 0.777726 -0.787155 -3.569865 -4.550612 0.069280 -10.882425 6.934283 8.930592 4.088963 2.324254 9.920233 0.218160 -9.420300 3.060700 -5.561400 -3.901494 -6.153674 1.436880 -11.709514 26.584631 -37.771127 135.115746 -59.421304 -106.779477 3.080313 -3.018053 -89.757049 47.769347 27.916624 32.064800 -7.125000 0.000000 0.000000 32.883900 70.751700 20.917600 10.363533 4.502281 2.854449 17.587152 -15.703259 -45.086787 -136.442615 53.886208 -108.249144 -3.408396 5.227826 -37.304580 -18.990183 0.887791 2.019400 7.125000 0.000000 0.000000 5.924500 -35.945700 1.324300 
32.130921 17.004673 -35.378468 -0.885725 -36.589510 16.574687 1.638377 -1.902796 -2.458169 -7.312590 8.997620 -44.550055 6.455170 16.400294 48.784977 3.505027 -6.153438 -0.784776 4.707400 -13.046500 -39.542700 -2.472112 0.545655 -0.849453 14.953693 -5.951502 -45.536706 -8.049511 -17.788584 54.622118 -4.831948 9.703633 -6.003387 -0.604400 -4.976200 13.840700 2.469589 -0.682051 19.021473 0.780441 -0.871093 -3.545440 -4.486511 0.039074 -10.686331 6.771036 8.818178 4.165513 2.608723 9.722211 0.646248 -9.202400 3.096600 -5.337900 -3.854520 -6.074979 1.362457 -11.558585 26.757664 -37.639109 134.481125 -59.955329 -106.454961 3.148975 -3.051696 -89.740758 47.435122 28.176019 32.023900 -7.125000 0.000000 0.000000 32.443100 71.012300 20.798900 10.302974 4.483801 2.833540 17.511140 -15.668734 -45.139973 -136.216573 54.112183 -108.164320 -3.400487 5.264855 -36.792565 -18.701394 0.876227 1.995100 7.125000 0.000000 0.000000 6.191800 -35.961800 1.382200 
32.119938 17.014057 -35.357567 -0.995222 -36.629801 16.595322 1.604411 -1.889489 -2.451513 -7.207683 8.968881 -44.336409 6.416934 16.393514 48.731578 2.898690 -4.342231 -1.099438 5.187200 -13.591600 -41.625400 -2.447208 0.541193 -0.845634 14.992110 -5.880206 -45.354330 -8.031502 -17.781943 54.584165 -4.771646 9.430355 -6.217154 -0.514400 -4.596900 12.762300 2.538308 -0.690732 18.903903 0.787869 -0.869575 -3.530345 -4.388708 0.045656 -10.704692 6.524834 8.792547 4.703911 2.851199 9.615529 0.891848 -8.979400 3.141400 -5.399900 -3.833498 -6.021809 1.315230 -11.321646 27.021281 -37.255642 133.875577 -60.478719 -106.133955 3.210348 -3.086010 -89.931538 47.306090 28.229702 32.016900 -7.125000 0.000000 0.000000 32.323900 71.091900 20.772400 10.197096 4.390993 2.830633 17.277347 -15.883657 -44.873067 -136.159032 54.244827 -108.200600 -3.390406 5.300776 -37.240066 -18.120040 0.666755 2.008000 7.125000 0.000000 0.000000 6.639000 -36.150000 1.452400 
32.110020 17.022268 -35.342531 -1.133386 -36.608906 16.640655 1.564020 -1.890625 -2.446393 -7.021832 8.906999 -44.132364 6.394219 16.369089 48.628036 2.962878 -4.522814 -0.921800 4.953000 -13.330600 -40.619100 -2.440540 0.535665 -0.838800 15.066958 -5.759349 -45.159684 -8.001040 -17.765149 54.524370 -4.768003 9.436366 -6.152552 -0.544000 -4.725400 13.126900 2.649267 -0.965590 18.904260 0.866611 -1.198311 -3.532109 -3.934969 -0.061879 -10.764002 5.682587 9.084148 5.145905 3.039511 9.881260 1.028669 -8.637400 3.363900 -5.474900 -3.862170 -6.000608 1.331113 -11.586087 27.891343 -37.337175 133.591242 -60.817305 -105.917501 3.238483 -3.074915 -90.296970 47.487857 28.253827 32.217300 -7.125000 0.000000 0.000000 32.791300 71.184500 21.157200 10.055961 4.333297 2.787614 16.598019 -15.490436 -44.305497 -135.853134 54.466767 -108.094924 -3.396409 5.357718 -37.535459 -17.957133 0.615228 2.027500 7.125000 0.000000 0.000000 6.733400 -36.240900 1.458200 
32.100530 17.027280 -35.333894 -1.122412 -36.619089 16.684220 1.560387 -1.895199 -2.438671 -6.992030 8.791303 -44.065746 6.365181 16.342336 48.525404 3.204519 -5.233137 -0.683485 4.643800 -12.971000 -39.260100 -2.406929 0.549598 -0.833150 15.005762 -5.663101 -45.078852 -7.965560 -17.745125 54.424205 -4.758183 9.407216 -6.100511 -0.586400 -4.903200 13.632700 2.564788 -0.737635 18.821836 0.809958 -0.921698 -3.535208 -4.212161 0.034546 -10.887285 6.384630 8.793276 5.411476 3.171697 9.523189 1.238182 -8.754700 3.217400 -5.393200 -3.754526 -5.984480 1.244342 -10.829964 27.532512 -36.643954 132.993138 -61.219464 -105.712420 3.316394 -3.108089 -90.563604 46.754970 28.288915 31.650300 -7.125000 0.000000 0.000000 31.284600 71.070500 20.049100 10.043393 4.324690 2.795841 16.805169 -16.148702 -44.555593 -135.668836 54.757512 -108.024466 -3.377985 5.361738 -37.800293 -17.641079 0.431290 2.048400 7.125000 0.000000 0.000000 6.982000 -36.392400 1.486700 
